<?xml version="1.0" encoding="UTF-8" standalone="no"?>
<!-- Created with Inkscape (http://www.inkscape.org/) -->

<svg
   xmlns:dc="http://purl.org/dc/elements/1.1/"
   xmlns:cc="http://creativecommons.org/ns#"
   xmlns:rdf="http://www.w3.org/1999/02/22-rdf-syntax-ns#"
   xmlns:svg="http://www.w3.org/2000/svg"
   xmlns="http://www.w3.org/2000/svg"
   xmlns:sodipodi="http://sodipodi.sourceforge.net/DTD/sodipodi-0.dtd"
   xmlns:inkscape="http://www.inkscape.org/namespaces/inkscape"
   id="svg2"
   height="99"
   width="327"
   version="1.1"
   inkscape:version="0.48.4 r9939"
   sodipodi:docname="drawing.svg">
  <defs
     id="defs2999" />
  <sodipodi:namedview
     pagecolor="#ffffff"
     bordercolor="#666666"
     borderopacity="1"
     objecttolerance="10"
     gridtolerance="10"
     guidetolerance="10"
     inkscape:pageopacity="0"
     inkscape:pageshadow="2"
     inkscape:window-width="1024"
     inkscape:window-height="706"
     id="namedview2997"
     showgrid="false"
     inkscape:zoom="2.733945"
     inkscape:cx="163.5"
     inkscape:cy="49.5"
     inkscape:window-x="-8"
     inkscape:window-y="-8"
     inkscape:window-maximized="1"
     inkscape:current-layer="svg2" />
  <metadata
     id="metadata7">
    <rdf:RDF>
      <cc:Work
         rdf:about="">
        <dc:format>image/svg+xml</dc:format>
        <dc:type
           rdf:resource="http://purl.org/dc/dcmitype/StillImage" />
        <dc:title />
      </cc:Work>
    </rdf:RDF>
  </metadata>
  <path
     style="fill:#000000"
     d="m 38.893792,83.160595 -5.6901,-3.21093 -4.08581,-10.65197 c -2.976211,-7.75917 -4.80298,-11.12187 -6.726595,-12.38227 -2.516323,-1.64876 -2.7038,-1.64413 -3.977837,0.0982 -0.917179,1.25431 -1.660446,1.50513 -2.366872,0.79871 -0.706427,-0.70643 0.201727,-2.41671 2.891941,-5.44626 l 3.921761,-4.41643 4.812139,2.33433 4.81214,2.33434 4.129573,-4.76018 c 4.061662,-4.68189 4.168919,-4.73261 6.522172,-3.08433 3.682681,2.57945 5.440809,2.05847 9.812098,-2.907577 3.010837,-3.420492 4.522442,-4.428545 5.957663,-3.973024 1.879211,0.596439 4.750149,6.586471 10.290391,21.470251 1.669921,4.48621 3.212014,6.89052 5.131112,8 3.092757,1.788 3.361969,2.87566 1.381987,5.58345 -1.327102,1.81492 -1.567359,1.77852 -6.990582,-1.05887 l -5.616245,-2.93839 -4.129324,-10.5 c -2.271129,-5.775 -4.530367,-10.9325 -5.02053,-11.46111 -0.557213,-0.60092 -1.69562,-0.1567 -3.03766,1.18534 l -2.146454,2.14646 2.301376,6.31465 c 4.655678,12.77454 5.783004,14.73698 9.477804,16.49891 4.070195,1.94094 4.098215,2.0269 1.683794,5.166 l -1.807685,2.35025 -6.05987,-3.05901 -6.059871,-3.05901 -4.262801,-11.07653 c -2.34454,-6.09209 -4.67249,-11.32973 -5.173221,-11.6392 -1.077157,-0.66572 -4.783071,2.46027 -4.787397,4.03824 -0.0017,0.60225 1.616697,5.27923 3.596329,10.39327 3.117793,8.0543 4.123519,9.62918 7.517471,11.77168 3.902908,2.4638 3.912153,2.485 2.377991,5.45174 -0.847082,1.63807 -1.866093,2.96074 -2.264469,2.93925 -0.398376,-0.0215 -3.284865,-1.48398 -6.414419,-3.25 z m 244.740708,-6.5785 -2.65127,-6.93827 3.16961,-7.55095 3.16961,-7.55094 5.63072,-1.12975 c 11.4799,-2.30335 10.42986,-1.27781 9.66505,-9.43948 l -0.6754,-7.207511 5.28054,-5.777752 c 2.9043,-3.177764 5.46059,-5.237603 5.68065,-4.57742 0.22006,0.660183 -0.75939,2.410595 -2.17657,3.889805 l -2.57667,2.689471 1.76504,11.664777 1.76504,11.66478 -3.17567,7.8908 c -4.92257,12.23141 -4.99205,12.55594 -2.52001,11.77134 1.19989,-0.38083 2.09872,-0.2271 2.09872,0.35894 0,0.85081 -7.18849,3.35752 -16.5,5.75374 -1.1,0.28308 -2.74208,0.71988 -3.64907,0.97069 -1.26171,0.34889 -2.27182,-1.17372 -4.30032,-6.48227 z m 14.61623,-8.13243 c 5.86928,-15.31113 5.75538,-14.43444 1.77197,-13.63776 -1.85697,0.37139 -3.68643,1.00432 -4.06547,1.40651 -0.37904,0.40219 -2.03582,4.22741 -3.68174,8.50049 -2.59842,6.74591 -2.85032,8.23281 -1.91243,11.28872 0.65183,2.12386 1.63185,3.40499 2.47141,3.23076 0.76518,-0.1588 3.2025,-5.01372 5.41626,-10.78872 z m -102.19857,5.95543 c -1.20255,-1.68882 -2.02486,-3.17538 -1.82736,-3.30346 8.14603,-5.28278 12.77597,-12.6438 13.58844,-21.60387 0.43805,-4.83089 0.0936,-6.75515 -2.04598,-11.428534 -1.415,-3.090762 -2.85499,-5.619567 -3.19998,-5.619567 -0.34499,0 -2.56692,1.136724 -4.93763,2.526053 -4.24384,2.487053 -4.32764,2.642074 -5.42807,10.040848 -1.59876,10.74931 -1.52234,11.69631 0.88231,10.9331 3.66715,-1.16391 2.05898,1.16965 -2.09785,3.04412 l -4.09786,1.84788 -1.87991,-2.446 c -2.2722,-2.95643 -2.28775,-3.41431 -0.53315,-15.70258 0.76517,-5.358883 1.95983,-13.936653 2.65479,-19.061713 l 1.26357,-9.318293 5.45443,-3.489153 c 5.58398,-3.5720315 8.18745,-3.8409935 4.57157,-0.472284 -1.57967,1.471689 -2.29393,4.201863 -3.2833,12.550035 -0.69544,5.868047 -1.05074,10.882868 -0.78957,11.144045 0.26118,0.261178 3.23567,-1.169731 6.60998,-3.179797 5.18317,-3.087595 6.37859,-3.452596 7.70429,-2.352361 2.27394,1.887199 5.21523,8.046723 6.42922,13.463815 2.47523,11.044986 -3.91524,26.286876 -14.04573,33.500426 l -2.80576,1.99788 -2.18645,-3.07059 z m 69.5351,-2.9453 c -0.94131,-2.83402 -2.23611,-5.35408 -2.87732,-5.60014 -0.64121,-0.24605 -4.49536,0.68507 -8.56477,2.06916 -4.06941,1.3841 -7.52427,2.39119 -7.67748,2.23799 -0.4883,-0.48831 5.3666,-16.48603 7.11989,-19.4541 2.87041,-4.85922 7.99563,-7.63808 14.86489,-8.05963 3.37228,-0.206945 7.33073,0.087 8.79656,0.65315 l 2.66514,1.02941 -3.91292,11.99776 c -3.18584,9.76843 -3.72493,12.49219 -2.90124,14.65867 0.66595,1.75158 1.51953,2.46603 2.49778,2.09064 0.81735,-0.31365 1.4861,-0.34826 1.4861,-0.0769 0,0.55266 -3.86541,2.12099 -7.43668,3.01733 -2.10147,0.52743 -2.52849,0.0475 -4.05995,-4.56333 z m -4.08639,-7.411 c 2.96919,-1.2406 3.65192,-2.29921 5.96788,-9.25341 3.11899,-9.36547 3.18777,-10.34572 0.72592,-10.34572 -3.38329,0 -5.86408,3.35289 -8.51132,11.50341 -3.49546,10.76209 -3.5871,10.35392 1.81752,8.09572 z m -178.382978,2.86749 c -5.263432,-3.35313 -5.546432,-3.76087 -7.636349,-11.00233 l -2.17035,-7.52015 2.197277,-3.22207 c 8.625354,-12.64816 12.091843,-16.412878 10.893602,-11.830795 -0.363839,1.391323 0.68645,2.703847 3.973138,4.965148 3.97051,2.731782 4.664577,3.801128 6.23662,9.608727 1.711613,6.32321 2.822249,7.88766 3.75182,5.28485 0.24554,-0.6875 0.74236,-0.97817 1.10406,-0.64594 0.63028,0.57893 -11.353986,17.84941 -12.383819,17.84627 -0.275,-8.4e-4 -2.9597,-1.5685 -5.965999,-3.48371 z m 9.965999,-4.415 c 0,-0.52161 -1.116977,-4.48423 -2.482171,-8.80584 -2.250621,-7.12447 -2.856973,-8.06811 -6.5,-10.1156 -4.381852,-2.462743 -4.842257,-1.941705 -3.066724,3.4706 0.523107,1.59457 1.43899,4.80629 2.035294,7.13715 0.801664,3.13358 2.04754,4.89255 4.78103,6.75 3.960656,2.69134 5.232571,3.07143 5.232571,1.56369 z m 131.586259,-1.33099 c -3.50937,-6.27534 -3.51075,-6.28288 -2.15174,-11.75 0.74794,-3.00885 1.62377,-6.64458 1.94629,-8.079415 0.46652,-2.075406 2.05177,-3.264 7.75359,-5.81349 8.17628,-3.655907 7.7655,-3.817201 12.68517,4.980911 l 3.10824,5.558634 -8.48541,3.82165 c -4.66697,2.1019 -8.72846,4.21491 -9.02552,4.69557 -0.29706,0.48066 0.47803,2.68548 1.72244,4.8996 1.60596,2.85743 2.71209,3.83898 3.81162,3.38234 4.50022,-1.86897 4.78998,-1.18267 0.34499,0.8171 -2.86224,1.28771 -5.52474,2.66195 -5.91667,3.05388 -1.44827,1.44826 -2.35983,0.5723 -5.793,-5.56678 z m 12.66374,-12.373 c 1.5125,-0.76944 2.75,-1.6448 2.75,-1.94524 0,-0.30044 -1.16776,-2.53888 -2.59502,-4.974321 -2.54719,-4.346444 -4.37013,-5.651094 -4.4406,-3.17807 -0.0196,0.6875 -0.65838,3.856331 -1.41953,7.041851 -1.37687,5.7624 -1.37288,5.78844 0.78562,5.12331 1.19324,-0.36769 3.40703,-1.29808 4.91953,-2.06753 z m -126.00043,11.87253 c -4.0526,-3.547 -4.33214,-4.16031 -6.00568,-13.17641 -1.58702,-8.550037 -1.99427,-9.522772 -4.24956,-10.150324 -1.45851,-0.405842 -1.792116,-0.735461 -0.80335,-0.793747 2.59658,-0.153063 2.88062,-1.409558 1.67534,-7.411131 l -1.11207,-5.537401 4.80245,-5.562662 c 2.64135,-3.059464 5.01889,-5.346231 5.28341,-5.081704 0.26453,0.264526 -0.33263,1.379965 -1.32702,2.478752 -1.68933,1.866693 -1.71444,2.539405 -0.38266,10.251137 1.36911,7.927886 1.54252,8.276718 4.39744,8.846099 l 2.97213,0.592756 -2.78055,0.778312 c -1.91492,0.536013 -2.6385,1.286973 -2.32428,2.412237 0.25094,0.898659 0.98021,4.895646 1.6206,8.882186 0.93561,5.82433 1.67355,7.6488 3.75635,9.28712 1.4256,1.12138 3.18507,1.81129 3.90994,1.53313 0.72487,-0.27816 1.31794,-0.15406 1.31794,0.27578 0,0.8238 -5.29107,6.17705 -6.05472,6.12587 -0.2449,-0.0164 -2.35798,-1.70392 -4.69571,-3.75 z m 18.01022,-3.47016 c -3.87744,-3.96455 -4.22229,-4.78302 -5.13442,-12.18608 -1.0934,-8.874348 -1.39022,-8.144596 6.8498,-16.840927 4.56345,-4.816165 6.02483,-5.667755 6.02483,-3.510845 0,0.666682 1.86587,3.113335 4.14639,5.437007 3.73982,3.810599 4.20557,4.843869 4.75,10.537852 0.53495,5.594863 0.83112,6.276613 2.60361,5.993203 1.27837,-0.2044 -0.84588,2.4115 -5.88738,7.25 -4.33806,4.16338 -8.18187,7.56979 -8.54179,7.56979 -0.35993,0 -2.52489,-1.9125 -4.81104,-4.25 z m 9.34897,-11 c -0.62954,-7.651535 -0.92772,-8.500268 -4.11044,-11.700001 -1.88741,-1.8975 -3.69945,-3.182203 -4.02676,-2.854895 -0.32731,0.327308 -0.1586,4.567519 0.3749,9.422691 0.84346,7.675925 1.31541,9.124685 3.61754,11.104895 4.40863,3.79215 4.891,3.09705 4.14476,-5.97269 z m 19.04158,9.85821 c -2.41407,-3.165 -2.60588,-4.21809 -2.86869,-15.749997 -0.26587,-11.665973 -0.39368,-12.348357 -2.28165,-12.182235 -1.62607,0.143077 -1.3592,-0.398072 1.4274,-2.894414 l 3.42741,-3.070393 2.26969,2.638677 c 1.24834,1.451272 2.69814,3.404266 3.2218,4.339987 0.86524,1.546097 1.26739,1.460823 4.4081,-0.934712 l 3.456,-2.636022 3.78056,3.871641 3.78056,3.87164 -2.88576,2.486825 -2.88576,2.486824 -2.80267,-3.393595 c -2.35682,-2.853733 -3.09057,-3.213803 -4.61238,-2.263415 -2.60271,1.625416 -3.72462,17.195779 -1.48529,20.613429 1.26592,1.93202 1.82841,2.1355 3.21724,1.16378 0.92571,-0.64769 0.1251,0.2222 -1.77913,1.93308 -1.90422,1.71088 -3.76331,3.11069 -4.13131,3.11069 -0.36799,0 -1.83325,-1.5263 -3.25612,-3.39179 z M 123.02064,17.87345 c -1.08413,-1.306295 -1.06229,-1.731788 0.12755,-2.484688 2.02614,-1.282085 2.63583,-1.162937 3.33196,0.651145 1.2271,3.19779 -1.24146,4.506132 -3.45951,1.833543 z m 13.18511,-0.70193 c -1.48828,-1.488278 -1.42496,-3.453078 0.12814,-3.976293 1.14955,-0.387264 3.64372,1.89175 3.7182,3.397449 0.0623,1.259345 -2.74358,1.681606 -3.84634,0.578844 z"
     id="path3012"
     inkscape:connector-curvature="0" />
</svg>
